# xmcd
#
# Track frame offsets: 
#        150
#        20799
#        33701
#        53502
#        75372
#        100524
#        121140
#        139143
#        164237
#        188347
#        209681
#        230065
#        240178
#        259454
#        277293
#        301849
#        317857
#
# Disc length: 4333 seconds
#
# Revision: 0
# Processed by: cddbd v1.5.2PL0 Copyright (c) Steve Scherf et al.
# Submitted via: ExactAudioCopy v1.3
#
DISCID=ef10eb11
DTITLE=Сергей Дроздов -  Послесловие
DYEAR=2015
DGENRE=Folk/Rock
TTITLE0=Сергей Дроздов - Людмила
TTITLE1=Сергей Дроздов - Кис Кис Мяу
TTITLE2=Сергей Дроздов - Нет Не Надо
TTITLE3=Сергей Дроздов - Лошади в Океане
TTITLE4=Сергей Дроздов - Возьми Меня с собой
TTITLE5=Сергей Дроздов - Женщина Моя Родная
TTITLE6=Сергей Дроздов - Любовь Впереди
TTITLE7=Сергей Дроздов - Над Россией
TTITLE8=Сергей Дроздов - Не Везет
TTITLE9=Сергей Дроздов - Прощай Прощай
TTITLE10=Сергей Дроздов - Не Узнала 
TTITLE11=Сергей Дроздов - Песня Рабства
TTITLE12=Сергей Дроздов - Письмо
TTITLE13=Сергей Дроздов - Путешествие по Карте
TTITLE14=Сергей Дроздов - Упала Звезда 
TTITLE15=Сергей Дроздов - Гадание
TTITLE16=Сергей Дроздов - Уходит Жизнь
EXTD=
EXTT0=
EXTT1=
EXTT2=
EXTT3=
EXTT4=
EXTT5=
EXTT6=
EXTT7=
EXTT8=
EXTT9=
EXTT10=
EXTT11=
EXTT12=
EXTT13=
EXTT14=
EXTT15=
EXTT16=
PLAYORDER=
